<?xml version="1.0" encoding="utf-8"?>
<?xml-stylesheet type="text/xsl" href="rss1.xsl"?>
<rss version="2.0" xmlns:atom="http://www.w3.org/2005/Atom" xmlns:content="http://purl.org/rss/1.0/modules/content/" xmlns:dc="http://purl.org/dc/elements/1.1/" xmlns:media="http://search.yahoo.com/mrss/">
<channel>
 <title>Getty</title>
 <link>http://www.gettyimg.com/</link>
 <atom:link href="http://www.gettyimg.com/" rel="self" type="application/rss+xml" />

 
                <item>
                <title><![CDATA[【Requests】[REQ AUD] - [4] OPM/Pop Singles  (Tidal Lossless)]]></title>
                <link><![CDATA[https://sharemania.us/threads/4-opm-pop-singles-tidal-lossless.233693/]]></link>
                <description><![CDATA[<article>
<blockquote class="messageText SelectQuoteContainer ugc baseHtml">
these lil requests would really mean a big to me and a massive thanks to anyone who will share! xx<br>
<br>
Juan Karlos - Ere (only the track 'Ere' not the album)<br>
<a href="https://tidal.com/browse/track/316954557" target="_blank" class="externalLink" rel="nofollow">https://tidal.com/browse/track/316954557</a><br>
<br>
Lola Amour - Raining In Manila<br>
<a href="https://tidal.com/browse/track/296124592" target="_blank" class="externalLink" rel="nofollow">https://tidal.com/browse/track/296124592</a><br>
<br>
Dilaw - Uhaw (both 2 tracks)<br>
<a href="https://tidal.com/browse/album/263982806" target="_blank" class="externalLink" rel="nofollow">https://tidal.com/browse/album/263982806</a><br>
<br>
- JVKE - Golden Hour (only the Golden hour track)<br>
<a href="https://tidal.com/browse/track/246277662" target="_blank" class="externalLink" rel="nofollow">https://tidal.com/browse/track/246277662</a>
<div class="messageTextEndMarker">&nbsp;</div>
</blockquote>
</article>]]></description>
                <author><![CDATA[Share Mania US]]></author>
                </item>

                
                <item>
                <title><![CDATA[【Requests】[REQ AUD] - Katy Perry Single songs from dolby atmos]]></title>
                <link><![CDATA[https://sharemania.us/threads/katy-perry-single-songs-from-dolby-atmos.233695/]]></link>
                <description><![CDATA[<article>
<blockquote class="messageText SelectQuoteContainer ugc baseHtml">
Looking for Cozy Little Christmas, When Im Gone, Small Talk, 365, Electric. It was uploaded somewhere but got deleted<img src="styles/default/xenforo/smilies/unhappy-48.png" class="mceSmilie" alt=":(" title="Frown    :(">
<div class="messageTextEndMarker">&nbsp;</div>
</blockquote>
</article>]]></description>
                <author><![CDATA[Kitty_Cat]]></author>
                </item>

                
                <item>
                <title><![CDATA[【Apple Music】WEB-RiP - Jerome &amp; KYANU - Break the Silence (1080p)]]></title>
                <link><![CDATA[https://sharemania.us/threads/jerome-kyanu-break-the-silence-1080p.233694/]]></link>
                <description><![CDATA[<article>
<blockquote class="messageText SelectQuoteContainer ugc baseHtml">
<img src="https://i.postimg.cc/3xyYtVJ9/Jerome-KYANU-Break-the-Silence-mp4.jpg" class="bbCodeImage LbImage" alt="[​IMG]" data-url="https://i.postimg.cc/3xyYtVJ9/Jerome-KYANU-Break-the-Silence-mp4.jpg" style=""><br>
<br>
<div class="bbCodeBlock bbCodeCode">
<div class="type">Code:</div>
<pre>General
Complete name                  : G:\Новая папка\Jerome &amp; KYANU - Break the Silence.mp4
Format                         : MPEG-4
Format profile                 : Base Media
Codec ID                       : isom (isom/iso2/avc1/mp41)
File size                      : 124 MiB
Duration                       : 2 min 32 s
Overall bit rate               : 6 819 kb/s
Frame rate                     : 25.000 FPS
Movie name                     : Break the Silence
Performer                      : Jerome &amp; KYANU
Genre                          : Dance
ContentType                    : Music Video
Recorded date                  : 2022-10-01 07:00:00 UTC
Writing application            : Lavf56.30.100
Copyright                      : ℗ 2022 Kontor Records GmbH / Playbox Music

Video
ID                             : 1
Format                         : AVC
Format/Info                    : Advanced Video Codec
Format profile                 : High@L4
Format settings                : CABAC / 4 Ref Frames
Format settings, CABAC         : Yes
Format settings, Reference fra : 4 frames
Codec ID                       : avc1
Codec ID/Info                  : Advanced Video Coding
Duration                       : 2 min 32 s
Bit rate                       : 6 555 kb/s
Width                          : 1 920 pixels
Height                         : 872 pixels
Display aspect ratio           : 2.2:1
Frame rate mode                : Constant
Frame rate                     : 25.000 FPS
Color space                    : YUV
Chroma subsampling             : 4:2:0
Bit depth                      : 8 bits
Scan type                      : Progressive
Bits/(Pixel*Frame)             : 0.157
Stream size                    : 119 MiB (96%)
Color range                    : Limited
Color primaries                : BT.709
Transfer characteristics       : BT.709
Matrix coefficients            : BT.709
Codec configuration box        : avcC

Audio
ID                             : 2
Format                         : AAC LC
Format/Info                    : Advanced Audio Codec Low Complexity
Codec ID                       : mp4a-40-2
Duration                       : 2 min 32 s
Bit rate mode                  : Constant
Bit rate                       : 265 kb/s
Channel(s)                     : 2 channels
Channel layout                 : L R
Sampling rate                  : 48.0 kHz
Frame rate                     : 46.875 FPS (1024 SPF)
Compression mode               : Lossy
Stream size                    : 4.72 MiB (4%)
Default                        : Yes
Alternate group                : 1

</pre>
</div>
<div class="bbCodeBlock bbCodeVfcHH HiddenContent">
<div class="attribution type">Hidden Content:</div>
<blockquote>You must either reply or click 'Like' to see the hidden information contained here.</blockquote>
</div>
<div class="messageTextEndMarker">&nbsp;</div>
</blockquote>
</article>]]></description>
                <author><![CDATA[vitalya3]]></author>
                </item>

                </channel></rss>